<svg viewBox="0 0 36 40" fill="none" xmlns="http://www.w3.org/2000/svg">
<path fill-rule="evenodd" clip-rule="evenodd" d="M17.9996 5.00037C9.6616 5.00037 3 11.662 3 20C3 20.8284 2.32843 21.5 1.5 21.5C0.671573 21.5 0 20.8284 0 20C0 10.0051 8.00475 2.00037 17.9996 2.00037C27.9945 2.00037 35.9993 10.0051 35.9993 20C35.9993 29.9949 27.9945 37.9997 17.9996 37.9997C17.1712 37.9997 16.4996 37.3281 16.4996 36.4997C16.4996 35.6712 17.1712 34.9997 17.9996 34.9997C26.3377 34.9997 32.9993 28.3381 32.9993 20C32.9993 11.662 26.3377 5.00037 17.9996 5.00037ZM18.0001 11.417C13.3286 11.417 9.41698 15.3287 9.41698 20.0001C9.41698 24.6716 13.3286 28.5833 18.0001 28.5833C22.6715 28.5833 26.5832 24.6716 26.5832 20.0001C26.5832 19.1717 27.2548 18.5001 28.0832 18.5001C28.9116 18.5001 29.5832 19.1717 29.5832 20.0001C29.5832 26.3284 24.3284 31.5833 18.0001 31.5833C11.6718 31.5833 6.41698 26.3284 6.41698 20.0001C6.41698 13.6718 11.6718 8.41702 18.0001 8.41702C18.8285 8.41702 19.5001 9.08859 19.5001 9.91702C19.5001 10.7454 18.8285 11.417 18.0001 11.417ZM16.4994 16.3334C16.4994 15.505 17.171 14.8334 17.9994 14.8334C20.8445 14.8334 23.166 17.1549 23.166 20C23.166 22.845 20.8445 25.1666 17.9994 25.1666C15.1544 25.1666 12.8329 22.845 12.8329 20C12.8329 19.1716 13.5044 18.5 14.3329 18.5C15.1613 18.5 15.8329 19.1716 15.8329 20C15.8329 21.1882 16.8112 22.1666 17.9994 22.1666C19.1876 22.1666 20.166 21.1882 20.166 20C20.166 18.8118 19.1876 17.8334 17.9994 17.8334C17.171 17.8334 16.4994 17.1618 16.4994 16.3334Z" fill="#7A46DA"/>
</svg>
